<svg id="Capa_1" enable-background="new 0 0 511.906 511.906" height="512" viewBox="0 0 511.906 511.906" width="512" xmlns="http://www.w3.org/2000/svg"><g><g><path d="m139.067 23.869c-76.709 0-138.893 62.185-138.893 138.893 0 0-11.611 151.671 255.826 325.272l30-216.082-30-184.172c-24.702-38.443-67.843-63.911-116.933-63.911z" fill="#ff6c6c"/><path d="m511.832 162.762c0-76.709-62.185-138.893-138.893-138.893-49.092 0-92.234 25.47-116.935 63.915-.001-.001-.002-.003-.003-.004v400.255c.001.001.002.001.003.002 267.439-173.603 255.828-325.275 255.828-325.275z" fill="#c83c50"/></g><g><path d="m195.235 147.393-110.313 110.312h-84.922v63.71l111.311-.001 83.924-83.921 60.765 60.765 20-42.305-20-47.795z" fill="#ffe477"/><path d="m348.645 300.803-92.645-92.645v90.1l66.255 66.255h189.651v-63.71z" fill="#ffb655"/></g></g></svg>