<?xml version="1.0" encoding="utf-8"?>
<!-- Generator: Adobe Illustrator 21.0.0, SVG Export Plug-In . SVG Version: 6.00 Build 0)  -->
<svg version="1.1" xmlns="http://www.w3.org/2000/svg" xmlns:xlink="http://www.w3.org/1999/xlink" x="0px" y="0px"
	 viewBox="0 0 512 512" style="enable-background:new 0 0 512 512;" xml:space="preserve">
<style type="text/css">
	.st0{display:none;}
	.st1{fill:#FF0000;}
	.st2{fill:#01A0C6;}
</style>
<g id="Layer_1" class="st0">
	
		<image style="display:inline;overflow:visible;" width="384" height="384" xlink:href="../Icons/Social Media Pack/Slike/logo-gmail.png"  transform="matrix(1.3333 0 0 1.3333 0 0)">
	</image>
</g>
<g id="Layer_5">
</g>
<g id="Layer_3">
	<path class="st1" d="M463.9,393.8c-0.6,33.8-31,35.5-31,35.5h-73.3V249.8l-127.3,94.6l-0.1,0.1l-0.2-0.1l-127.3-94.6v179.5H31.3
		c0,0-30.4-1.8-31-35.5c-0.6-33.8,0-268.4,0-268.4s13.1-61,71-37.3l160.9,120.7L393,88.1c57.8-23.7,71,37.3,71,37.3
		S464.5,360,463.9,393.8z"/>
	<path class="st2" d="M511.7,393.8c-0.6,33.8-31,35.5-31,35.5h-73.3V249.8l-127.3,94.6l-0.1,0.1l-0.2-0.1l-127.3-94.6v179.5H79.1
		c0,0-30.4-1.8-31-35.5c-0.6-33.8,0-268.4,0-268.4s13.1-61,71-37.3l160.9,120.7L440.8,88.1c57.8-23.7,71,37.3,71,37.3
		S512.3,360,511.7,393.8z"/>
</g>
<g id="Layer_4">
	<path d="M485.8,393.8c-0.6,33.8-31,35.5-31,35.5h-73.3V249.8l-127.3,94.6l-0.1,0.1l-0.2-0.1l-127.3-94.6v179.5H53.2
		c0,0-30.4-1.8-31-35.5c-0.6-33.8,0-268.4,0-268.4s13.1-61,71-37.3L254,208.8L414.9,88.1c57.8-23.7,71,37.3,71,37.3
		S486.4,360,485.8,393.8z"/>
</g>
</svg>
